<svg width="68" height="81" viewBox="0 0 68 81" fill="none" xmlns="http://www.w3.org/2000/svg">
<path d="M34.1814 0.288701C31.4619 1.17957 30.8524 3.61776 26.6793 10.7916C24.5225 14.4958 24.6631 13.8862 22.7876 17.0277C20.3494 21.2008 17.8644 26.124 14.1602 35.2672C12.7067 38.8776 9.37762 47.1768 5.43902 59.4615C3.00084 66.9636 1.21909 73.2466 0 77.7478C0.468881 78.4042 1.21909 79.342 2.43818 80.0453C3.42283 80.608 4.54815 80.9362 8.06475 80.9831C9.61206 81.03 11.6751 80.9831 14.1133 80.7955C15.4731 78.4042 17.5361 74.9345 20.1619 70.7615C21.5685 68.5109 23.2096 65.9789 29.1644 57.0702C31.1337 54.1162 33.7594 50.2245 36.9009 45.5826C38.12 46.4735 43.6997 50.2714 50.9205 49.0523C58.7977 47.7394 62.83 41.4564 64.0491 39.534C70.7073 29.1718 66.0184 17.1684 65.4089 15.7618C61.189 12.292 57.4848 9.94765 54.906 8.44723C49.7952 5.54017 48.9981 5.91526 44.825 3.10198C43.7466 2.35177 42.3868 1.41402 40.3238 0.757582C38.9171 0.335589 36.4789 -0.41462 34.1814 0.288701Z" fill="white"/>
</svg>
