<svg width="77" height="33" viewBox="0 0 77 33" fill="none" xmlns="http://www.w3.org/2000/svg">
<path d="M76.1728 15.4409L27.3703 32.4726C26.996 32.613 26.5749 32.5662 26.2474 32.3322L0.512611 14.0839C-0.329617 13.4757 -0.0956681 12.1655 0.933722 11.8848C4.67696 9.87279 10.7597 7.25252 18.5737 6.92499C21.3812 6.78462 23.9546 7.01857 26.1538 7.3461C28.9144 5.8488 32.2365 4.21115 36.1669 2.85422C40.0973 1.45051 43.7002 0.608279 46.7884 0.0467934C46.8819 2.85517e-06 47.0223 0 47.2095 0C47.3499 0 47.4902 0.0467819 47.6306 0.0935724L76.3131 13.1949C77.2957 13.616 77.2022 15.0665 76.1728 15.4409Z" fill="white"/>
</svg>
