<svg width="8" height="17" viewBox="0 0 8 17" fill="none" xmlns="http://www.w3.org/2000/svg">
<path d="M0.322014 15.9023C0.275244 15.154 0.181709 14.1718 0.13494 13.0026C-0.0053673 10.7109 -0.0989026 9.21427 0.181712 7.39027C0.368788 5.9872 0.649397 5.19212 1.2574 4.67766C1.77186 4.25674 2.42663 4.06966 2.61371 4.02289C3.22171 3.88258 3.73616 3.92935 4.39093 4.02289C4.90539 4.06966 5.37309 4.20997 5.6537 4.25673C6.16816 2.15212 6.82292 -0.0460358 7.33738 0.000733435C7.89861 0.0475027 7.99216 2.76012 7.99216 3.22781C8.03893 4.9115 7.89861 7.3435 6.96323 10.2432C6.91646 10.898 6.8697 11.8801 6.58908 13.0026C6.21493 14.733 5.98109 15.8087 5.18601 16.37C3.45555 17.7263 0.462321 15.9958 0.322014 15.9023Z" fill="white"/>
</svg>
