<svg width="23" height="7" viewBox="0 0 23 7" fill="none" xmlns="http://www.w3.org/2000/svg">
<path d="M0 0.124455C0.194365 1.04769 0.340137 1.77656 0.437319 2.31106C0.631685 3.52585 0.631682 3.866 0.874639 4.4005C1.02041 4.69205 1.36056 5.5667 2.13802 6.14979C2.72111 6.58711 3.30422 6.68429 4.95633 6.78147C7.38589 6.92725 8.60067 7.02442 10.1556 6.92724C10.9331 6.87865 11.6619 6.78148 13.1197 6.58711C16.2781 6.19838 17.8816 6.00402 18.8534 5.61528C20.6999 4.93501 23.2267 3.42867 22.9837 2.35966C22.9351 2.1167 22.7408 1.63079 19.6309 0.901919C16.3753 0.124458 13.8 0.0272814 13.6542 0.0272814C10.0584 -0.118493 9.08659 0.367412 5.44224 0.367412C3.06126 0.416003 1.16619 0.270229 0 0.124455Z" fill="white"/>
</svg>
