<svg width="10" height="6" viewBox="0 0 10 6" fill="none" xmlns="http://www.w3.org/2000/svg">
<path d="M0.316145 1.5753C1.73553 0.0580255 3.30174 0.449578 4.86796 1.52635C5.99368 2.30947 7.07045 3.19047 8.04934 4.07147C9.56661 5.44191 8.53878 5.05035 6.97256 4.75669C5.50424 4.46302 4.08485 3.97358 2.66547 3.38625C2.56758 3.33731 2.3718 3.38624 2.3718 3.53308C2.42075 4.70774 2.95913 5.44191 3.98696 5.9803C4.18274 6.07819 4.37852 5.78452 4.18274 5.68663C3.39963 5.39296 3.05702 4.85457 3.10597 3.97357C3.30174 4.07146 3.54647 4.16935 3.74224 4.2183C4.32957 4.26724 5.06374 4.6588 5.60212 4.80564C6.87468 5.14825 8.19617 5.34402 9.51766 5.44191C9.6645 5.44191 9.76239 5.24614 9.6645 5.14825C7.95145 3.4352 5.94473 1.5753 3.79119 0.400639C2.22497 -0.431416 1.1482 0.10697 0.0224789 1.33058C-0.0754096 1.47741 0.169312 1.72214 0.316145 1.5753Z" fill="#180E25"/>
</svg>
