<svg width="5" height="6" viewBox="0 0 5 6" fill="none" xmlns="http://www.w3.org/2000/svg">
<path d="M0.97528 5.63303C0.126184 4.67779 0.179249 3.24491 0.922208 2.2366C1.45289 1.44056 2.83268 0.485323 3.84098 0.485323C4.05325 0.379184 4.26553 0.432266 4.42473 0.697612C4.37167 1.59979 3.89405 2.02431 2.88575 2.13045C2.56734 2.18352 2.46121 2.13048 2.19587 2.28969C1.77132 2.50196 1.55903 2.7673 1.50597 3.24492C1.4529 3.51027 1.82438 3.61641 1.87745 3.35107C1.93052 2.92651 2.99188 2.6081 3.31029 2.55503C3.4695 2.50196 3.62871 2.50196 3.73485 2.44889C4.00019 2.34275 4.21246 2.13047 4.42473 1.91819C4.79621 1.3875 4.95542 0.697593 4.69008 0.113832C4.63701 0.0607632 4.58395 0.00768765 4.53088 0.00768765C3.1511 -0.0984506 1.34677 0.909875 0.60381 2.0774C-0.192218 3.24492 -0.245296 4.89005 0.709937 5.95143C0.869143 6.11064 1.13449 5.84531 0.97528 5.63303Z" fill="#180E25"/>
</svg>
