<svg width="10" height="8" viewBox="0 0 10 8" fill="none" xmlns="http://www.w3.org/2000/svg">
<path d="M6.94604 0.286273C7.14846 0.741714 7.35088 1.09594 7.65451 1.45017C7.95813 1.7538 8.7172 2.05743 8.86901 2.31046C9.62808 3.77799 8.46418 4.13222 7.35088 4.53706C6.84483 4.73947 6.13637 4.9925 5.57972 5.09371C4.46642 5.24552 3.85917 4.48645 2.74587 4.58766C1.88559 4.68887 1.27833 5.24552 0.772289 5.85278C0.266244 6.46003 -0.442221 7.2697 0.367451 7.77575C0.569869 7.87696 1.32894 7.82635 1.37954 7.82635C2.29042 7.82635 2.84708 7.92756 3.75796 7.97816C4.71944 8.07937 4.97246 7.82635 5.93395 7.2697C6.13637 7.16849 5.93395 6.81426 5.73153 6.96607C4.56763 7.67453 3.80856 7.47211 2.59405 7.42151C2.13861 7.3709 0.620473 7.72514 0.418055 7.01668C0.36745 6.81426 1.22773 5.80216 1.32894 5.70096C3.04949 4.28403 3.65675 5.49854 4.97246 5.54915C5.78214 5.54915 6.84483 5.09371 7.6039 4.79008C8.31236 4.53706 9.8305 4.23343 9.88111 3.22133C9.88111 2.91771 9.72929 2.76589 9.57748 2.51287C8.86902 1.55138 7.70511 1.39956 7.09786 0.0838419C7.14846 -0.118577 6.84483 0.0838542 6.94604 0.286273Z" fill="#180E25"/>
</svg>
