<svg width="42" height="39" viewBox="0 0 42 39" fill="none" xmlns="http://www.w3.org/2000/svg">
<path d="M40.3017 13.7916C40.0679 13.6513 39.6939 13.6981 38.9459 13.7449C36.8421 13.8851 35.5331 14.7734 33.1955 15.9889C32.167 16.5499 31.0917 17.0174 30.0164 17.5784C29.7359 17.7187 27.5854 18.794 23.331 20.8978C21.087 22.0198 17.3936 23.8431 11.877 26.5079C12.999 21.8795 14.121 17.1577 15.2431 12.3423C16.0846 8.64898 16.8794 4.95564 17.6741 1.30905C17.3936 1.02854 16.9729 0.701285 16.5054 0.467529C14.7756 -0.373991 12.999 0.14027 12.4848 0.327274C12.1575 1.07529 11.5965 2.38433 10.942 3.97386C9.21218 8.04121 5.84611 15.8487 2.80728 23.8898C0.189223 30.8558 2.71378 24.8716 0.843732 30.5285C0.189217 32.5388 -0.278291 33.7543 0.18922 35.2036C0.750233 37.0269 2.43327 37.9619 2.66702 38.1022C3.8358 38.7567 4.91108 38.71 6.31362 38.71C12.0173 38.6632 5.4721 39.2242 12.8588 38.897C20.4325 38.5229 24.266 38.3359 25.2011 38.0554C32.4475 35.9984 36.5616 30.248 37.1693 29.3597C41.1432 23.2821 42.3587 14.9604 40.3017 13.7916Z" fill="#DEDC52"/>
</svg>
