<svg width="25" height="38" viewBox="0 0 25 38" fill="none" xmlns="http://www.w3.org/2000/svg">
<path d="M11.9703 0.0815053C9.63686 5.22465 7.3034 10.3678 5.25566 15.6062C3.20793 20.8446 0.779227 26.6068 0.0649013 32.2261C-0.458937 36.2264 2.2555 37.4645 5.7795 37.7503C12.1132 38.3217 18.4469 37.7979 24.7806 37.3217C25.0187 37.3217 25.0187 36.9407 24.7806 36.9407C19.8279 37.3217 14.9229 37.7026 9.97021 37.5598C7.73199 37.5122 5.01755 37.655 2.87458 36.8455C-0.982779 35.3692 0.731605 30.7499 1.49355 27.7973C4.11275 18.2254 8.25582 9.17725 12.3037 0.176747C12.3513 0.0815039 12.0656 -0.108981 11.9703 0.0815053Z" fill="#180E25"/>
</svg>
