<svg width="15" height="12" viewBox="0 0 15 12" fill="none" xmlns="http://www.w3.org/2000/svg">
<path d="M0.280784 1.32285C0.856402 1.03504 1.43203 0.651297 2.05561 0.459424C2.48733 0.363487 2.91903 0.267551 3.35075 0.219583C4.26214 0.939106 5.17354 1.65863 6.08494 2.37815C6.51665 3.19361 6.37275 4.48876 6.51665 5.40015C6.75649 7.03107 6.94836 9.14167 8.14757 10.4368C10.45 13.0271 12.6566 10.7726 14.9111 9.71729C15.103 9.62136 14.9591 9.28558 14.7192 9.42948C13.9038 9.81323 13.1842 10.6767 12.3688 10.9645C9.77849 11.9238 8.14757 10.3409 7.42804 8.03841C6.80446 6.02374 7.14023 3.57736 6.22884 1.65863C4.98166 -0.931655 2.10358 0.0277111 0.0889137 1.08301C-0.102959 1.13098 0.0409426 1.46676 0.280784 1.32285Z" fill="#180E25"/>
</svg>
