<svg width="9" height="4" viewBox="0 0 9 4" fill="none" xmlns="http://www.w3.org/2000/svg">
<path d="M4.38593 2.95093C3.50918 3.24318 1.95052 3.53544 1.12248 2.80482C1.46344 0.905207 2.09665 0.515543 3.0221 1.58712C3.16822 1.73324 3.36306 1.83065 3.50918 1.97678C3.94755 2.36644 3.99626 2.56127 4.53205 2.41514C4.62946 2.36644 4.67817 2.22031 4.77559 2.1716C5.4575 1.63582 6.13942 0.418125 7.21099 0.564248C7.99032 0.272001 8.13645 0.759077 7.74679 1.97678C7.45454 2.17161 7.11358 2.36645 6.77262 2.56128C5.94459 2.99965 5.11655 3.24318 4.19109 3.48672C3.94755 3.53543 4.04497 3.87639 4.28851 3.82769C5.16525 3.63285 9.98736 2.22032 8.81836 0.612959C7.45454 -1.38407 5.01913 2.17161 3.75272 1.78195C2.77856 1.4897 2.34019 0.223287 1.07378 0.466827C0.44057 0.61295 0.0509062 1.05132 0.00219811 1.68453C-0.0952181 3.82767 3.07081 3.82767 4.43463 3.3893C4.72688 3.24318 4.62947 2.90223 4.38593 2.95093Z" fill="white"/>
</svg>
