<svg width="66" height="79" viewBox="0 0 66 79" fill="none" xmlns="http://www.w3.org/2000/svg">
<path d="M0.333269 78.3666C4.46541 63.9042 8.87928 49.4886 14.6549 35.5896C17.6131 28.4523 20.947 21.4559 24.7974 14.7411C26.6287 11.5012 28.6008 8.30815 30.7139 5.20905C31.6999 3.75341 32.8738 1.68735 34.5643 0.889092C37.4286 -0.472635 40.2929 1.21779 42.8755 2.43864C50.9989 6.19513 58.6058 10.8907 65.6962 16.3846C65.884 16.5255 66.1188 16.2907 65.9309 16.1498C59.498 11.1725 52.5954 6.80557 45.3172 3.2369C42.5468 1.87518 38.5555 -0.801324 35.3156 0.23171C32.5921 1.07692 30.9486 4.26993 29.493 6.47687C20.4305 20.282 13.8097 35.5896 8.40972 51.1791C5.31061 60.1477 2.58716 69.2102 0.00457747 78.3197C-0.0423786 78.5075 0.286313 78.6014 0.333269 78.3666Z" fill="#180E25"/>
</svg>
