<svg width="66" height="88" viewBox="0 0 66 88" fill="none" xmlns="http://www.w3.org/2000/svg">
<path d="M36.7708 0C35.6934 0.843151 34.335 2.10788 32.8829 3.74734C31.8524 4.91838 31.0561 6.04259 30.1661 7.30731C28.2456 10.1647 26.934 12.741 25.6224 15.4578C23.0461 20.704 20.704 25.5756 18.2214 32.5082C17.7062 33.9603 17.2846 35.1782 17.0036 36.0213C15.6451 36.9581 13.8183 38.2229 11.7104 39.7686C9.6494 41.3144 7.68205 42.7665 5.29312 44.8275C3.88787 46.0454 2.06104 47.6849 0 49.7928C1.63946 49.5117 4.02839 49.3244 6.88574 49.6522C12.0383 50.2612 15.8325 52.3222 17.9872 53.7275C20.9851 55.7417 22.8119 57.8495 23.7956 59.0674C25.2477 60.8006 26.7935 63.049 28.4798 66.7026C32.1334 74.6657 33.7729 83.5188 34.3818 87.5472C35.6466 86.3293 37.4265 84.5493 39.4407 82.2073C44.3591 76.4926 47.1228 71.4805 50.4954 65.2974C54.1959 58.5522 56.4443 53.2591 57.1938 51.3854C57.7559 50.0738 59.7232 45.2491 61.7374 38.6444C63.1427 34.1008 64.6884 28.2924 66 21.5004C63.9858 18.8772 60.9879 15.3641 56.819 11.851C55.929 11.1015 54.2427 9.6494 52.0412 8.10362C48.8559 5.71469 43.7502 2.5763 36.7708 0Z" fill="#DEDC52"/>
</svg>
