<svg width="14" height="14" viewBox="0 0 14 14" fill="none" xmlns="http://www.w3.org/2000/svg">
<path d="M3.80973 12.5672C2.54189 12.0795 1.27405 10.6654 1.4691 9.15376C2.0055 5.15518 3.8585 7.73963 4.88252 7.98345C5.80902 8.1785 6.68676 8.61737 7.56449 7.98345C8.29594 7.44705 8.39348 6.66684 8.24719 5.78911C8.1009 4.81384 7.41821 3.83858 7.90584 2.81456C9.51502 -0.452571 11.9044 2.91207 12.5871 4.37497C12.9772 5.2527 14.2451 4.47249 13.8549 3.64352C12.8309 1.44918 10.2952 -1.23278 7.71078 0.620217C6.93057 1.15661 6.4917 2.0831 6.34541 2.96084C6.24789 3.49723 6.24789 3.98487 6.34541 4.52126C6.44294 4.96013 6.54046 5.399 6.73551 5.78911C6.24788 6.86189 5.61397 7.00818 4.88252 6.27674C2.73694 5.25271 0.640135 5.74033 0.103741 8.32478C-0.432653 10.8117 1.17652 13.0548 3.41963 13.9325C4.29736 14.3226 4.68746 12.9085 3.80973 12.5672Z" fill="#504EC3"/>
</svg>
