<svg width="20" height="15" viewBox="0 0 20 15" fill="none" xmlns="http://www.w3.org/2000/svg">
<path d="M2.9332 6.42454C3.12605 6.13527 4.66883 4.15857 6.64553 3.77287C7.17587 3.67644 8.23654 3.4836 9.10436 4.06214C9.39364 4.25499 9.87577 4.73711 10.4543 7.87091C10.84 10.0405 10.6954 10.2815 11.0811 11.535C11.4668 12.7404 11.8525 13.8492 12.9613 14.5242C13.106 14.6206 14.0702 15.151 15.2273 14.9581C15.7577 14.8617 16.0469 14.6688 17.0594 14.0903C17.879 13.6564 18.554 13.3189 19.0361 13.0778C19.2772 12.4993 19.5664 11.6797 19.7111 10.6672C19.8075 10.0887 19.8557 9.12444 19.7111 7.96734C19.6146 7.48522 19.2772 5.41209 17.879 3.72466C17.1076 2.80863 15.8059 1.74795 12.3828 0.928345C8.4294 -0.0359005 1.00471 -0.8073 0.0886743 1.60331C-0.200599 2.42292 0.0886713 3.77287 2.9332 6.42454Z" fill="#180E25"/>
</svg>
