<svg width="18" height="20" viewBox="0 0 18 20" fill="none" xmlns="http://www.w3.org/2000/svg">
<path d="M1.76173 2.51826C1.42955 3.32498 1.04992 4.32151 0.71774 5.46041C0.195747 7.12129 -0.0415222 7.97546 0.00593174 9.11436C0.00593174 9.63635 0.0533973 10.8227 0.670298 12.1514C1.52447 14.0496 3.04298 14.9986 3.80224 15.4257C4.70387 15.9952 5.55805 16.2799 6.08004 16.4223C6.12749 16.7544 6.12748 17.0392 6.17494 17.3713C5.7004 17.0866 5.0835 17.0866 4.60896 17.3713C4.18188 17.6561 3.89716 18.1781 3.99207 18.6526C4.13443 19.4119 5.22587 19.6966 5.79531 19.8389C7.17147 20.2186 8.35782 19.8389 9.06963 19.6017C9.82889 19.3644 10.3509 19.1746 10.9203 18.7001C12.1067 17.6561 12.1541 16.0426 12.1541 15.5681C13.9099 14.6665 15.0963 13.6699 15.7606 12.9581C16.425 12.2463 16.7097 11.8192 16.8521 11.4871C17.469 10.3007 17.4215 9.16181 17.4215 8.63982C17.3266 6.36203 15.9979 4.70115 15.3335 3.94188C14.5743 2.9928 12.1541 0.0981122 8.16801 0.00320433C4.65642 -0.0917035 2.33118 1.94882 1.76173 2.51826Z" fill="white"/>
</svg>
