<svg width="5" height="8" viewBox="0 0 5 8" fill="none" xmlns="http://www.w3.org/2000/svg">
<path d="M2.40046 7.85892C2.79017 6.83594 3.13117 5.76424 3.52088 4.74125C3.81316 3.96184 4.20287 3.085 4.25159 2.25687C4.25159 1.23389 3.66702 0.600617 2.74146 0.259623C2.1569 0.0647693 0.54935 -0.276223 0.110927 0.405765C-0.424923 1.28261 1.13391 1.67231 1.52362 2.0133C1.71847 2.15944 1.96204 1.91588 1.76719 1.76974C2.1569 2.11073 1.18263 1.28261 1.32877 1.42875C1.18263 1.28261 0.792915 0.698044 1.03648 0.454477C1.18262 0.308337 1.96205 0.503189 2.10819 0.551903C3.17989 0.746756 3.95931 1.03904 3.81317 2.69529C3.66703 4.35155 2.59532 6.20266 2.05947 7.76148C2.01076 8.00505 2.35175 8.10248 2.40046 7.85892Z" fill="#180E25"/>
</svg>
