<svg width="79" height="82" viewBox="0 0 79 82" fill="none" xmlns="http://www.w3.org/2000/svg">
<path d="M0.380839 81.8638C5.88373 64.9318 12.7506 48.4701 20.9344 32.6199C24.9792 24.8124 29.1182 16.9579 34.1037 9.71473C36.6905 5.95207 40.171 0.637303 45.2035 0.30807C49.4836 0.0258701 53.9517 2.4716 57.6203 4.39996C65.8982 8.77406 73.0943 15.0295 78.6442 22.5548C78.7853 22.7429 79.0675 22.5548 78.9264 22.3667C74.082 15.782 68.0617 10.1851 61.0538 5.95207C55.3627 2.51864 46.2853 -3.03129 40.0769 2.0483C36.7376 4.77623 34.1978 8.72702 31.9402 12.3486C29.3533 16.4405 26.9546 20.6264 24.65 24.8594C19.8526 33.5606 15.4785 42.4499 11.4807 51.5273C7.15363 61.4043 3.34393 71.5165 0.00457131 81.7697C-0.042462 82.0049 0.286772 82.0989 0.380839 81.8638Z" fill="#180E25"/>
</svg>
