<svg width="1" height="1" viewBox="0 0 1 1" fill="none" xmlns="http://www.w3.org/2000/svg">
<path d="M0.0882803 0.48501C0.219498 0.550621 0.285108 0.68184 0.416326 0.747452C0.613153 0.878674 0.875593 0.747456 0.809984 0.48501C0.809984 0.419398 0.744371 0.28818 0.744371 0.222568C0.744371 0.28818 0.678758 0.353787 0.678758 0.48501C1.0068 0.550621 1.13803 0.0913532 0.809984 0.0257418C0.613157 -0.0398696 0.481927 0.0257298 0.2851 0.156953C0.21949 0.222564 0.219506 0.288172 0.219506 0.419394C0.219506 0.485006 0.2851 0.616245 0.2851 0.681856C0.416318 0.616245 0.54754 0.550617 0.678758 0.419394C0.54754 0.353783 0.481931 0.222564 0.350713 0.156953C0.219494 -0.105493 -0.174156 0.222564 0.0882803 0.48501Z" fill="#180E25"/>
</svg>
