<svg width="80" height="87" viewBox="0 0 80 87" fill="none" xmlns="http://www.w3.org/2000/svg">
<path d="M0 82.0283C2.67407 73.2554 5.34815 66.0307 7.50617 60.7295C10.2272 53.9739 12.6198 48.8603 17.4519 38.6332C20.5951 31.9715 23.1284 26.9517 26.084 21.4628C33.0741 8.51465 29.837 16.7714 35.7482 6.73194C36.5926 5.27762 38.1408 2.60354 41.237 1.1023C43.7704 -0.117449 46.2568 -0.023616 47.1482 0.0232976C48.7432 0.117125 50.2914 0.492429 54.279 2.41589C56.9062 3.68255 59.4395 4.90231 62.2543 6.77885C70.1358 11.9863 76.6099 19.8208 78.5333 22.1665C79.4716 24.3714 80.9259 28.9221 79.1901 33.4258C76.4222 40.6505 66.4766 45.248 55.1704 42.8554C52.637 45.811 48.7432 50.2678 43.8642 55.7097C38.7506 61.3863 35.842 64.3888 29.5556 71.1912C26.1778 74.8505 21.2988 80.1517 15.3877 86.6727C14.3556 86.7665 12.9012 86.8604 11.1654 86.8135C8.20988 86.7196 6.23951 86.6727 4.1284 85.6406C3.14321 85.1246 1.50123 84.1394 0 82.0283Z" fill="white"/>
</svg>
