<svg width="19" height="85" viewBox="0 0 19 85" fill="none" xmlns="http://www.w3.org/2000/svg">
<path d="M2.99878 6.09128C2.10852 7.73123 1.82739 9.18377 1.63996 10.074C1.1714 12.4637 1.45255 13.9162 1.54626 16.0716C1.63997 18.9767 1.26511 20.4761 0.890262 23.4748C-2.8487e-06 30.6438 0 38.7967 0 46.5748C0 53.3221 0.234283 58.4294 0.281139 59.9756C0.562276 66.348 1.17141 74.5947 2.48338 84.247C2.6708 84.4345 3.37364 84.9967 4.45133 84.9967C5.4353 85.0436 6.13814 84.575 6.32557 84.4345C6.46614 83.7316 6.70041 82.7008 6.98155 81.3888C8.10609 76.1878 8.8558 72.7673 9.41807 70.1434C11.1517 62.2716 12.042 57.8203 12.8386 53.1815C13.1665 51.2136 13.6351 48.2148 13.3071 44.3257C13.1197 42.2641 12.7917 40.6241 12.5574 39.4527C12.698 38.6093 12.8854 37.3442 13.1666 35.8448C13.5414 33.5957 15.4156 24.5994 15.6968 23.0531C17.9927 11.8077 16.5871 16.3059 17.6647 11.6203C17.9459 10.4489 18.555 7.91866 17.8053 4.91988C17.1962 2.48337 16.1653 1.4994 15.8842 1.26512C14.3848 5.69738e-06 12.5574 0 11.8077 0C9.23065 0 7.40326 1.35882 6.37243 2.10852C5.90387 2.43651 4.2639 3.74848 2.99878 6.09128Z" fill="#DEDC52"/>
</svg>
