<svg width="11" height="8" viewBox="0 0 11 8" fill="none" xmlns="http://www.w3.org/2000/svg">
<path d="M0.316112 7.30107C1.21472 5.55378 2.0135 2.9578 3.41134 1.46012C4.85911 -0.0874763 6.55648 1.06076 7.80455 1.90944C8.25386 2.20897 11.3491 5.30417 9.40209 5.05456C8.50348 4.95471 7.55495 3.65672 6.45664 4.30572C6.10718 4.50541 6.20702 4.60526 6.00732 4.90479C5.90748 5.00464 5.95741 5.20432 5.90749 5.30417C5.45818 6.55223 4.8591 7.60063 3.36141 7.60063C3.1118 7.60063 3.1118 7.95008 3.36141 8C4.26003 8 5.00887 7.70046 5.60795 7.00155C5.90748 6.65209 5.90749 6.35255 6.1571 6.0031C6.20703 5.10449 6.85601 4.70511 8.00424 4.75503C8.55339 4.95472 9.00271 5.20432 9.45202 5.55378C10.7001 5.90324 11.0995 5.30419 10.5004 4.10604C9.95124 3.05767 9.0027 2.25891 8.05417 1.60992C7.30532 1.11069 5.60795 -0.137381 4.60949 0.0123871C3.81072 0.112232 3.16172 1.21054 2.81226 1.85953C1.76388 3.5569 0.96511 5.40402 0.0664972 7.15131C-0.133195 7.30108 0.166343 7.50076 0.316112 7.30107Z" fill="#180E25"/>
</svg>
