<svg width="3" height="9" viewBox="0 0 3 9" fill="none" xmlns="http://www.w3.org/2000/svg">
<path d="M0.341246 4.67104C0.485713 3.8524 0.678344 3.03377 0.967278 2.26329C1.20806 1.63727 1.20804 1.05941 1.97853 1.15572C2.79718 1.25203 2.55641 1.87805 2.55641 2.60037C2.4601 4.67104 1.93038 6.78986 1.54514 8.76422C1.49698 9.005 1.83408 9.10131 1.88223 8.86053C2.26748 6.98248 2.60457 5.10444 2.84534 3.22639C2.98981 2.11882 3.08612 0.914946 2.26747 0.0481543C2.21932 -7.35506e-07 2.17116 0 2.07485 0C0.678338 0.577861 0.244944 3.3227 0.0041658 4.57473C-0.0439898 4.81551 0.341246 4.91182 0.341246 4.67104Z" fill="#180E25"/>
</svg>
