<svg width="17" height="39" viewBox="0 0 17 39" fill="none" xmlns="http://www.w3.org/2000/svg">
<path d="M0.429918 8.91051C1.71968 4.61131 5.3979 0.646484 10.0793 0.35987C16.7191 -0.0700502 16.6236 7.09529 16.0981 11.7766C15.095 20.8528 12.8021 29.8333 11.0346 38.7661C10.9869 39.005 11.3212 39.1005 11.369 38.8616C12.611 32.6517 13.853 26.4417 15.0472 20.2318C15.5727 17.5567 16.0504 14.8816 16.337 12.2066C16.6714 9.53151 17.0535 6.56983 16.1459 3.99031C14.8561 0.407635 11.3212 -0.691051 7.88188 0.407635C3.96482 1.64963 1.14646 4.99346 0 8.81498C0.047769 9.05382 0.382149 9.14936 0.429918 8.91051Z" fill="#180E25"/>
</svg>
