<svg width="34" height="106" viewBox="0 0 34 106" fill="none" xmlns="http://www.w3.org/2000/svg">
<path opacity="0.25" d="M0.096152 100.513C-0.139862 101.012 0.0735882 101.608 0.572898 101.844L8.70966 105.69C9.20897 105.926 9.80506 105.713 10.0411 105.214C10.2771 104.714 10.0636 104.118 9.56433 103.882L2.33166 100.464L5.75036 93.2308C5.98637 92.7315 5.77293 92.1354 5.27362 91.8994C4.7743 91.6634 4.17821 91.8768 3.94219 92.3762L0.096152 100.513ZM1.00024 0.940971C0.663131 1.88243 0.662761 1.8823 0.662513 1.88221C0.662593 1.88224 0.662467 1.88219 0.662623 1.88225C0.662936 1.88236 0.663733 1.88265 0.665011 1.88311C0.667563 1.88404 0.67203 1.88566 0.678382 1.888C0.691088 1.89267 0.711329 1.90017 0.738867 1.91057C0.793943 1.93136 0.878187 1.96371 0.989651 2.0081C1.2126 2.09688 1.54435 2.23377 1.96936 2.42251C2.81953 2.80008 4.04189 3.38474 5.51239 4.20647C8.45489 5.85077 12.3816 8.43912 16.3075 12.209C24.1434 19.7338 32 31.984 32 50.9406L34 50.9406C34 31.3558 25.8567 18.6062 17.6928 10.7665C13.6187 6.85419 9.54548 4.16913 6.48801 2.46059C4.95854 1.6059 3.68092 0.994282 2.78111 0.594673C2.33112 0.394833 1.97537 0.247905 1.72958 0.150023C1.60667 0.101079 1.51123 0.0643869 1.44521 0.0394653C1.4122 0.0270042 1.38654 0.0174846 1.36848 0.0108463C1.35946 0.00752717 1.35233 0.00492818 1.34713 0.00304189C1.34453 0.00209877 1.34241 0.00133381 1.34078 0.000745993C1.33997 0.000452323 1.33911 0.000143633 1.3387 -2.87406e-06C1.33796 -0.000266802 1.33735 -0.000486622 1.00024 0.940971ZM32 50.9406C32 69.8972 24.1434 82.1474 16.3075 89.6722C12.3816 93.4421 8.45488 96.0305 5.51239 97.6748C4.04188 98.4965 2.81953 99.0811 1.96935 99.4587C1.54434 99.6475 1.2126 99.7843 0.989647 99.8731C0.878182 99.9175 0.793939 99.9499 0.738863 99.9707C0.711325 99.9811 0.691084 99.9886 0.678377 99.9932C0.672026 99.9956 0.667559 99.9972 0.665007 99.9981C0.663729 99.9986 0.662932 99.9989 0.662619 99.999C0.662459 99.999 0.662589 99.999 0.662508 99.999C0.662756 99.9989 0.663126 99.9988 1.00024 100.94C1.33735 101.882 1.33796 101.881 1.33869 101.881C1.3391 101.881 1.33996 101.881 1.34078 101.88C1.34241 101.88 1.34452 101.879 1.34712 101.878C1.35232 101.876 1.35945 101.874 1.36848 101.87C1.38654 101.864 1.41219 101.854 1.4452 101.842C1.51122 101.817 1.60666 101.78 1.72957 101.731C1.97537 101.633 2.33112 101.486 2.7811 101.287C3.68091 100.887 4.95854 100.275 6.48801 99.4206C9.54547 97.7121 13.6187 95.027 17.6928 91.1147C25.8567 83.275 34 70.5254 34 50.9406L32 50.9406Z" fill="#504EC3"/>
</svg>
