<svg width="47" height="92" viewBox="0 0 47 92" fill="none" xmlns="http://www.w3.org/2000/svg">
<path d="M26.3874 0.228512C20.472 9.16199 14.4761 19.1417 8.72168 30.1275C5.62313 36.0429 2.80627 41.8376 0.230854 47.4713C0.150372 49.3224 0.0698905 51.7771 0.0296496 54.6342C-0.091073 62.3202 0.190616 68.1954 0.271097 69.966C0.552784 75.5997 1.1564 82.843 2.40387 91.3339C2.72579 91.5753 3.24892 91.8973 3.93302 91.9777C5.18049 92.1387 6.42795 91.4144 7.23277 90.2071C7.5547 86.7464 7.91687 83.2857 8.35952 79.7043C9.64722 68.8392 11.3776 58.5376 13.3896 48.8395C14.8383 47.3104 17.2528 44.7752 20.2306 41.6364C27.9166 33.5077 28.9226 32.381 33.2686 27.8338C36.8903 24.0914 41.679 19.1417 41.679 19.1417C39.506 23.9304 48.7211 9.04126 46.6688 4.21236C45.5421 1.71742 41.3168 -0.77751 26.3874 0.228512Z" fill="white"/>
</svg>
