<svg width="60" height="40" viewBox="0 0 60 40" fill="none" xmlns="http://www.w3.org/2000/svg">
<path d="M50.0084 0.0090276C49.4016 0.0899309 48.7139 0.73716 47.7431 1.66755C45.316 4.01374 44.3451 6.6431 44.1429 7.12852C43.1316 9.79833 39.8145 15.5829 31.7647 27.4757C27.9622 27.7184 24.0384 27.9207 19.9123 27.9611C13.3592 28.0825 7.17005 27.9207 1.34502 27.5971C1.0214 28.0016 0.576438 28.6488 0.293276 29.5387C-0.151692 30.9141 0.0101111 32.0872 0.131466 32.6535C3.16534 33.7053 6.40148 34.6761 9.79941 35.566C17.647 37.6291 24.9283 38.8426 31.522 39.5708C32.4523 39.5708 33.7468 39.4898 35.2435 39.2067C36.1334 39.0449 37.9942 38.5999 40.9472 37.1437C42.0798 36.5773 43.6574 35.7278 48.5521 32.2085C50.4938 30.7927 52.1523 29.6196 53.3658 28.6893C55.5907 26.9498 57.7751 25.2104 59.9999 23.471C54.8221 4.33735 51.8287 -0.233682 50.0084 0.0090276Z" fill="#504EC3"/>
</svg>
