<svg width="36" height="80" viewBox="0 0 36 80" fill="none" xmlns="http://www.w3.org/2000/svg">
<path d="M0.140586 4.84142C-0.0602492 5.7251 -0.0200847 8.01462 0.100416 9.3803C0.261084 11.6296 0.622591 13.3167 0.783259 14.0397C2.4301 21.3902 5.28195 30.9098 5.28195 30.9098C8.49531 41.4737 7.69197 40.4294 9.37898 44.928C11.4275 50.3908 13.6367 54.6484 15.163 57.3396C17.4525 61.3965 19.4207 64.1278 22.3529 68.2249C24.5621 71.3177 27.6148 75.3344 31.4306 79.9536C31.8725 79.9938 32.3947 80.034 33.0373 79.9536C34.403 79.7528 35.367 79.07 35.8088 78.6683C32.8365 69.2291 29.824 59.7898 26.8516 50.3506C24.8834 39.5457 23.1161 28.2588 21.5897 16.4898C20.8667 10.9066 20.2642 5.40376 19.7019 0.0213891C9.17816 -0.219613 0.903758 1.5879 0.140586 4.84142Z" fill="white"/>
</svg>
