<svg width="22" height="54" viewBox="0 0 22 54" fill="none" xmlns="http://www.w3.org/2000/svg">
<path d="M3.98446 0C3.54055 0.807115 3.13699 1.65459 2.73343 2.54241C0.312086 8.0308 -0.131819 13.3578 0.0296038 17.4337C2.89486 20.9043 5.80048 24.5767 8.74644 28.4508C10.8046 31.1546 12.7417 33.8585 14.598 36.4816C15.2437 38.338 15.8894 40.2347 16.4947 42.2121C17.7458 46.2881 18.7143 50.2026 19.5214 53.8749C19.6425 53.9153 20.2478 54.1574 20.9339 53.8346C21.7813 53.431 21.9428 52.5432 21.9831 52.4625C21.741 45.1984 21.4989 37.9344 21.2567 30.6704C20.8532 29.4597 20.2882 27.7648 19.5214 25.7873C18.5932 23.2449 17.5843 20.5007 16.2123 17.474C15.3244 15.537 14.033 12.6717 12.0152 9.56431C10.3607 7.0219 7.81825 3.59166 3.98446 0Z" fill="#504EC3"/>
</svg>
