<svg width="9" height="10" viewBox="0 0 9 10" fill="none" xmlns="http://www.w3.org/2000/svg">
<path d="M2.46156 1.20383C2.24177 1.46756 1.89012 1.81923 1.53847 2.25879C0.879126 3.00605 0.703311 3.31374 0.615399 3.44561C0.219792 4.10495 0 4.41265 0 4.85222C0 4.94013 8.0696e-06 5.68739 0.57144 6.21487C1.14287 6.69839 2.022 6.74234 2.76925 6.34674C2.98904 6.69839 3.25277 7.26982 3.16486 7.92917C3.07695 8.85226 2.4176 9.42368 2.68134 9.77533C2.81321 9.95116 3.07695 9.95116 3.4286 9.99512C4.17586 10.0391 4.74728 9.77534 5.09893 9.64347C5.84619 9.29182 6.37367 8.98412 7.16488 8.45664C8.08797 7.84125 8.74731 7.40169 8.96709 7.26982C9.01105 6.83026 9.01105 6.25883 8.87918 5.55552C8.83522 5.24783 8.61543 4.32474 7.47257 2.47857C6.54949 0.984054 6.06598 0.236794 5.45059 0.0609684C4.04399 -0.290683 2.72529 0.984043 2.46156 1.20383Z" fill="white"/>
</svg>
