<svg width="43" height="59" viewBox="0 0 43 59" fill="none" xmlns="http://www.w3.org/2000/svg">
<path d="M3.88146 1.48813C3.04114 2.88865 2.08079 4.72934 1.3205 7.0102C0.360142 9.93129 0.08003 12.4922 0 14.413C1.16043 18.3745 2.36089 22.416 3.48131 26.4575C6.08228 35.7009 8.52319 44.7843 10.804 53.7477C11.7644 54.668 13.245 55.9885 15.3658 57.0689C19.6874 59.2698 23.7689 59.0697 26.61 58.9096C28.8908 58.7896 32.4522 58.3494 36.5337 56.7088C37.6141 51.6269 38.4544 47.1852 39.0546 43.5439C40.2151 36.6613 41.4555 29.2185 42.0157 19.6149C42.3359 14.453 42.3359 10.0113 42.2958 6.49C40.6152 5.64969 38.2943 4.6093 35.4533 3.60892C32.4121 2.52852 27.1702 0.687832 20.1676 0.167637C13.8852 -0.352558 8.32312 0.407722 3.88146 1.48813Z" fill="#504EC3"/>
</svg>
