<svg width="12" height="8" viewBox="0 0 12 8" fill="none" xmlns="http://www.w3.org/2000/svg">
<path d="M1.22591 3.55502C2.26604 3.72837 2.82945 1.6481 4.86639 1.30138C5.16976 1.25804 5.94987 1.12803 6.6433 1.51808C7.51008 1.99481 7.85679 2.94827 8.20351 3.94507C8.6369 5.24525 8.42021 5.50528 8.94028 6.37206C9.20031 6.76211 9.59036 7.4122 10.4138 7.71558C11.1072 7.93227 11.714 7.80225 11.974 7.71558C12.0174 7.19551 12.0173 6.50208 11.8873 5.6353C11.714 4.72517 11.4973 3.29498 10.3705 2.12482C9.417 1.08468 8.24684 0.737977 7.25004 0.477942C4.60635 -0.258823 0.662505 -0.258825 0.0557572 1.30138C-0.204278 2.08149 0.48914 3.425 1.22591 3.55502Z" fill="#180E25"/>
</svg>
