<svg width="9" height="7" viewBox="0 0 9 7" fill="none" xmlns="http://www.w3.org/2000/svg">
<path d="M0.231349 1.50616C1.29468 0.8109 2.767 -0.170643 4.15751 0.647307C5.01636 1.13808 5.26174 2.11962 5.46622 2.97847C5.71161 3.91912 5.8343 4.94155 6.48866 5.67771C6.93853 6.20937 8.53354 7.19091 8.98341 6.29117C9.06521 6.12758 8.81982 5.96399 8.73803 6.12758C7.26572 6.08668 6.40687 5.47322 6.12059 4.28719C6.03879 4.04181 5.99789 3.83732 5.9161 3.59193C5.79341 3.10116 5.71161 2.65129 5.54802 2.16052C5.34354 1.58796 5.09815 1.01539 4.64827 0.606413C3.21686 -0.66141 1.37648 0.320128 0.0677617 1.17898C-0.0958283 1.34257 0.0677592 1.58795 0.231349 1.50616Z" fill="#180E25"/>
</svg>
