<svg width="12" height="14" viewBox="0 0 12 14" fill="none" xmlns="http://www.w3.org/2000/svg">
<path d="M1.8657 0.987457C1.50549 1.34767 1.30538 1.66785 0.945166 2.2682C0.665004 2.74848 0.344818 3.34883 0.144702 4.18932C0.0646551 4.54952 -0.175492 5.63015 0.224741 6.9109C0.745043 8.63189 2.02579 9.51241 2.34598 9.75255C3.5867 10.593 4.82742 10.6731 5.3077 10.6731C5.42777 10.8332 5.54783 10.9933 5.62788 11.1534C5.46778 11.1534 4.98751 11.1534 4.54726 11.4735C4.18705 11.7537 3.82684 12.274 3.94691 12.8744C4.06698 13.4347 4.54725 13.7148 4.66732 13.7949C4.86744 13.915 5.34772 14.1151 6.38833 13.915C7.0287 13.7949 8.0693 13.4347 9.35005 12.3941C10.0304 11.8338 11.3512 10.513 11.1111 10.1128C11.031 10.0327 10.7509 9.75254 8.54958 10.6731C8.30944 10.3929 8.02927 9.95266 8.0693 9.51241C8.14934 8.9921 8.62962 8.75196 9.06988 8.27168C9.47011 7.87145 9.91037 7.19106 10.0705 6.03039C9.43009 5.95034 8.70967 5.7102 8.22939 5.1899C7.78913 4.70962 7.78913 4.26936 7.22881 2.58839C6.66848 0.907411 6.42835 0.627247 6.18821 0.467154C5.54784 -0.0131244 4.82742 0.0269025 4.38717 0.0269025C4.14703 -0.0531439 2.86628 -0.0131231 1.8657 0.987457Z" fill="white"/>
</svg>
