<svg width="5" height="5" viewBox="0 0 5 5" fill="none" xmlns="http://www.w3.org/2000/svg">
<path d="M3.61658 0.690745C2.64481 -0.281023 0.932651 -0.234744 0.0534333 0.875848C0.00715871 0.968397 -0.0391159 1.06095 0.0534333 1.10722C0.377356 1.38487 0.701277 1.47741 1.07147 1.61624C1.90442 1.84761 2.36716 2.21781 2.82991 2.95821C3.29266 3.79115 3.7554 4.6241 4.77344 4.80919C5.00482 4.85547 5.09736 4.53154 4.86599 4.48527C3.29265 4.20762 3.24638 2.07898 1.81187 1.47741C1.5805 1.38486 1.30285 1.33859 1.07147 1.24604C0.469904 1.06094 0.284804 0.922117 0.932648 0.551919C1.71932 0.0891728 2.73736 0.274273 3.3852 0.922118C3.52403 1.06094 3.7554 0.829569 3.61658 0.690745Z" fill="#180E25"/>
</svg>
