<svg width="14" height="10" viewBox="0 0 14 10" fill="none" xmlns="http://www.w3.org/2000/svg">
<path d="M0 8.9746C0.128834 9.10344 0.30061 9.31816 0.601222 9.447C1.20245 9.79056 1.84661 9.70467 2.06134 9.66172C2.19017 9.10344 2.36195 8.33043 2.66256 7.47154C3.22084 5.88259 3.60734 4.72308 4.63801 3.64946C5.06746 3.22002 6.44169 1.71695 8.3742 1.71695C8.84659 1.71695 9.79137 1.71695 10.4785 2.44701C11.2085 3.22001 11.0797 4.25069 11.0797 4.46541C11.2515 4.59425 11.6809 4.89486 12.2821 4.89486C13.3987 4.85191 13.957 3.82124 13.9999 3.77829C13.914 3.34885 13.6993 2.70468 13.2699 2.06051C12.2392 0.600386 10.6503 0.256828 10.092 0.127994C8.67481 -0.172619 7.55824 0.127992 6.91407 0.29977C4.7239 0.900996 3.39262 2.31818 2.7914 2.96235C0.730058 5.28136 0.171778 7.8151 0 8.9746Z" fill="white"/>
</svg>
