<svg width="13" height="9" viewBox="0 0 13 9" fill="none" xmlns="http://www.w3.org/2000/svg">
<path d="M13 4.78435C12.5979 4.58333 12.035 4.26169 11.3114 3.85965C8.97949 2.49269 8.65785 1.92982 6.96926 1.08552C5.88373 0.522659 4.758 0 3.23023 0C2.42614 0 1.17979 0.0402058 0.496316 0.924708C0.0138608 1.56798 -0.187164 2.5731 0.214882 3.21637C0.536519 3.73903 1.05918 3.65862 2.02409 4.3421C2.58695 4.74415 2.82818 5.10599 3.10962 5.38742C4.03432 6.35234 5.24046 6.63377 7.2909 7.15643C8.41663 7.43786 10.1052 7.92031 12.3567 8.56359C12.5577 7.31724 12.7587 6.0307 13 4.78435Z" fill="white"/>
</svg>
