<svg width="26" height="26" viewBox="0 0 26 26" fill="none" xmlns="http://www.w3.org/2000/svg">
<path d="M14.1491 0.475952C13.5145 -0.158651 12.4856 -0.158651 11.851 0.475952L0.475952 11.851C-0.158651 12.4856 -0.158651 13.5145 0.475952 14.1491C1.11055 14.7837 2.13945 14.7837 2.77405 14.1491L3.25 13.6731V24.375C3.25 25.2725 3.97754 26 4.875 26H8.12501C9.02247 26 9.75001 25.2725 9.75001 24.375V21.125C9.75001 20.2276 10.4775 19.5 11.375 19.5H14.625C15.5225 19.5 16.25 20.2276 16.25 21.125V24.375C16.25 25.2725 16.9776 26 17.875 26H21.125C22.0225 26 22.75 25.2725 22.75 24.375V13.6731L23.226 14.1491C23.8606 14.7837 24.8895 14.7837 25.5241 14.1491C26.1587 13.5145 26.1587 12.4856 25.5241 11.851L14.1491 0.475952Z" fill="#504EC3"/>
</svg>
